
<svg version="1.2" xmlns="http://www.w3.org/2000/svg" viewBox="0 0 319 213" width="319" height="213">
	<style>
		.s0 { fill: #316ea2;stroke: #316ea2;stroke-width: .4 } 
		.s1 { fill: #1f374a;stroke: #1f374a;stroke-width: .4 } 
		.s2 { fill: #77306b;stroke: #77306b;stroke-width: .4 } 
		.s3 { fill: #5a2556;stroke: #5a2556;stroke-width: .4 } 
		.s4 { fill: #4089be;stroke: #4089be;stroke-width: .4 } 
		.s5 { fill: #5f245a;stroke: #5f245a;stroke-width: .4 } 
		.s6 { fill: #263446;stroke: #263446;stroke-width: .4 } 
		.s7 { fill: #1e394a;stroke: #1e394a;stroke-width: .4 } 
		.s8 { fill: #f8fcfa;stroke: #f8fcfa;stroke-width: .4 } 
		.s9 { fill: #203845;stroke: #203845;stroke-width: .4 } 
		.s10 { fill: #2d3149;stroke: #2d3149;stroke-width: .4 } 
		.s11 { fill: #1f394a;stroke: #1f394a;stroke-width: .4 } 
		.s12 { fill: #2a2f42;stroke: #2a2f42;stroke-width: .4 } 
		.s13 { fill: #5a2557;stroke: #5a2557;stroke-width: .4 } 
		.s14 { fill: #f8fcf9;stroke: #f8fcf9;stroke-width: .4 } 
		.s15 { fill: #fdfcfa;stroke: #fdfcfa;stroke-width: .4 } 
		.s16 { fill: #223a47;stroke: #223a47;stroke-width: .4 } 
		.s17 { fill: #1e3849;stroke: #1e3849;stroke-width: .4 } 
		.s18 { fill: #2c2d40;stroke: #2c2d40;stroke-width: .4 } 
		.s19 { fill: #fcfdfa;stroke: #fcfdfa;stroke-width: .4 } 
		.s20 { fill: #fdfcf9;stroke: #fdfcf9;stroke-width: .4 } 
		.s21 { fill: #763069;stroke: #763069;stroke-width: .4 } 
		.s22 { fill: #203747;stroke: #203747;stroke-width: .4 } 
	</style>
	<g id="logo_parts">
		<path class="s0" d="m160.7 5.9c1-2.2 2.3-5.2 5.2-4.7 4.7-0.6 7.7 3.4 10.8 6.1 17.3 16.7 39.4 28 62.7 33.7-0.1 0.3-0.2 1-0.3 1.3-1.8 2.5-3.1 5.3-3.6 8.3-5.4 25.7-12.5 51-18.3 76.6-1.3 4.9-3.3 9.7-3.6 14.8-8.8-2.8-17.7-5.7-26.2-9.3-5.9-2.1-11.2-5.8-17.4-6.9 0.2 3.3 0.9 6.6 3.6 8.6-0.3-0.1-1.1-0.4-1.5-0.5 4.3 11.3 13.3 20.5 23.8 26.2 5 2.6 10.3 4.2 15.6 5.8q-2.1 0.7-4.2 1.6c-1.7 9.5-4.3 18.8-6.6 28.2-0.7 2.7-1 5.5-1 8.3-10.7-3.2-21.6-7-30.1-14.6-9.2-7-15.3-17.2-20.2-27.4-2.3-5.5-4.8-11-6.3-16.8-3.3-15.1-5.3-30.7-4.2-46.2 0.2-3.3 0.2-6.6 0.4-9.9 1.6-13.7 3.8-27.4 7.3-40.8 2.5-7.8 4.1-16 7-23.7 2.4-6.2 4.4-12.6 7.1-18.7z"/>
		<path class="s1" d="m151.4 14.3c1.7-4 4.8-7.5 9.3-8.4-2.7 6.1-4.7 12.5-7.1 18.7-2.9 7.7-4.5 15.9-7 23.7 0-5.7-0.4-11.5-1.6-17.1 1.5-5.8 3.9-11.4 6.4-16.9z"/>
		<path class="s2" d="m132.1 30.1c2.3-1.9 4.8-4 7.9-4.3 1.9-0.1 4.2 1.5 3.8 3.6-1.4 7.7-3.5 15.1-5.9 22.5-1.9 6.7-2.9 13.7-4.5 20.5-1 4.5-1 9.2-2.4 13.6-0.6 2.3-3.4 1.7-5.2 2.3-9.1 0.1-20.2 4.6-22.3 14.5 4.2-1.8 8-4.2 12.2-6 4.8-2.1 10.1-2 15.2-1.7-0.2 12.1-0.5 24.4 1.5 36.5-9.2 5.7-19.6 9.3-30.2 11.7-0.6-0.3-1.8-0.8-2.4-1.1q-7.9-33.7-16.9-67.1c-1.4-5.9-2.8-11.8-4.9-17.4 19.7-5.4 38.5-14.3 54.1-27.6z"/>
		<path class="s3" d="m137.9 51.9c2.4-7.4 4.5-14.8 5.9-22.5 0.3 0.5 0.9 1.4 1.2 1.8 1.2 5.6 1.6 11.4 1.6 17.1-3.5 13.4-5.7 27.1-7.3 40.8q-0.7 1.1-1.4 2.2c-4-1.3-8-2.5-12.1-3 1.8-0.6 4.6 0 5.2-2.3 1.4-4.4 1.3-9.1 2.4-13.6 1.6-6.8 2.6-13.8 4.5-20.5z"/>
		<path class="s4" d="m239.4 41c20.2 4.7 41.4 7 61.9 2.5 4.7-0.9 9.4-3.2 14.3-2 1.9 1.1 2.9 3.3 2.8 5.4 0.1 7.6-1.3 15-2.2 22.4-5.8 37.3-18.4 74.2-41.5 104.4-2.5 2.8-4.1 6.5-7.2 8.7-3.9 1.9-6.8 5.2-10.1 8-16 12.6-37.7 18-57.7 13.6 0-2.8 0.3-5.6 1-8.3 2.3-9.4 4.9-18.7 6.6-28.2q2.1-0.9 4.2-1.6c8.7 1.1 17.9 1.2 26.1-2.3 4.5-1.6 8.8-4.2 11.4-8.3 0.5 0.3 1.3 0.8 1.7 1.1 1.7-2.1 3.3-4.3 4.6-6.8-14.1-1.4-28-4-41.7-7.6 0.3-5.1 2.3-9.9 3.6-14.8 5.8-25.6 12.9-50.9 18.3-76.6 0.5-3 1.8-5.8 3.6-8.3 0.1-0.3 0.2-1 0.3-1.3z"/>
		<path class="s5" d="m8.4 57.5c4.8-1.2 9.4 0.9 14 1.8 18.3 4 37.4 2.4 55.6-1.6 2.1 5.6 3.5 11.5 4.9 17.4q9 33.4 16.9 67.1c0.6 0.3 1.8 0.8 2.4 1.1-8.5 2-17.2 3.1-26 4-4.5 0.5-9.2 0.1-13.7 1.3-1.3 1.8 0.2 3.1 1.7 4.1 7.8 7 18.3 10.8 28.8 10.6 4-0.2 7.9-0.8 11.8-1.5 0.3 0 0.9-0.1 1.2-0.2-0.6 5.6 2.1 10.8 3.2 16.2 1.3 5 1.9 10.3 4 15 1.5 0.8 3.1 1.1 4.7 1.6-9.3 2.9-19.2 2.7-28.9 2.2-4.6-0.2-8.9-1.9-13-3.6-9.8-3.6-18.4-9.9-25.7-17.3-4.9-5.7-10.6-11-14.3-17.7-2.6-4.4-5.3-8.7-7.8-13.1-5.4-10.5-9.4-21.6-13.3-32.8-2.4-5.8-3.2-12.1-4.7-18.1-2.5-10.2-3.8-20.6-4.7-30.9-0.7-0.2-2-0.4-2.6-0.6q1.3-0.3 2.6-0.7c0.8-1.5 1.4-3.3 2.9-4.3z"/>
		<path class="s6" d="m1.4 73c0-3.4-1.3-7.7 1.5-10.5 0.6 0.2 1.9 0.4 2.6 0.6 0.9 10.3 2.2 20.7 4.7 30.9 1.5 6 2.3 12.3 4.7 18.1 3.9 11.2 7.9 22.3 13.3 32.8 2.5 4.4 5.2 8.7 7.8 13.1 3.7 6.7 9.4 12 14.3 17.7 7.3 7.4 15.9 13.7 25.7 17.3 4.1 1.7 8.4 3.4 13 3.6 9.7 0.5 19.6 0.7 28.9-2.2 4.9-2.7 9.2-6.6 14.7-7.8-3.5 4.6-9 7.2-14 10-19 9.4-42.5 6.3-59.9-5.4-13.7-8.8-23.6-22.3-31.9-36.1-14.2-25.1-22.4-53.4-25.4-82.1z"/>
		<path class="s7" d="m166.8 78.3c3.6-5.3 10.3-7.4 16.4-8.1 7.4-1.2 14.5 2.9 19.5 8.1 3.8 5.2 7.5 11.4 6.8 18.1-1.8 0.4-3.5-0.4-5.2-0.6l-0.3-0.8c-2-9.7-9.9-17.5-19.5-19.7-5.3-1.6-10.7 0.5-15.6 2.6-0.5 0.1-1.5 0.3-2.1 0.4z"/>
		<path class="s8" d="m168.9 77.9c4.9-2.1 10.3-4.2 15.6-2.6 9.6 2.3 17.5 10 19.5 19.7-2.6-0.5-5.2-1.2-7.8-2 0-0.5 0-1.6 0-2.1 0-2.7-0.3-5.7-2.3-7.7-3.3-3.7-9.2-4.3-13.3-1.5-1.8 1.4-2.8 3.7-4 5.6-4.7-1-9.3-2.3-13.9-3.6 1.6-2.4 3.8-4.3 6.2-5.8z"/>
		<path class="s9" d="m180.6 81.7c4.1-2.8 10-2.2 13.3 1.5 2 2 2.3 5 2.3 7.7-1 2.1-3.3 1.4-5 1-4.9-1.4-9.8-2.8-14.6-4.5 1.2-2 2.2-4.3 4-5.7z"/>
		<path class="s10" d="m103.5 102.8c2.1-9.9 13.2-14.4 22.3-14.5 4.1 0.5 8.1 1.7 12.1 3q0.7-1.1 1.4-2.2c-0.2 3.3-0.2 6.6-0.4 9.9-2.3-1.9-4.9-3.6-8-4-5.1-0.2-10.4-0.3-15.2 1.8-4.2 1.8-8 4.2-12.2 6z"/>
		<path class="s11" d="m239.2 101.5c7.2-11 24.4-13.9 34.5-5.3 6 5.6 11 13.3 10.6 21.8q-2.5-0.2-5-0.4-0.6-1.4-1.1-2.7c-2.3-7.8-8-14.6-15.8-17.2-7.5-3.3-15.8-0.8-22.4 3.3z"/>
		<path class="s12" d="m56 94.7c5.7-1.3 11.3 1.4 16 4.3 2.9 2.1 5.2 5.1 6.7 8.4 0.9 1.9-0.9 4.3-2.8 4.5-4.7 0.7-9.5 0.3-14.2-0.1 5.1-0.7 10.2-0.5 15.3-0.4-3.6-6.5-10.3-11.9-18-12.2-7.7-0.5-14.9 4.2-18.8 10.5-0.3-0.4-0.7-1.2-1-1.6 3.8-6.2 9.1-12.6 16.8-13.4z"/>
		<path class="s13" d="m130.9 95.1c3.1 0.3 5.7 2 8 3.9-1.1 15.5 0.9 31.1 4.2 46.2 1.5 5.8 4 11.3 6.3 16.8-0.4 3.6-1.4 7.2-2.6 10.7-0.5-0.1-1.5-0.3-2-0.4-5.3-9.2-8.2-19.3-10.4-29.6-0.6-0.3-1.9-0.9-2.5-1.2 1.1-2 2.3-4.1 2.8-6.4-0.2-1.4-1.5-2.3-2.3-3.5-2-12.1-1.7-24.4-1.5-36.5z"/>
		<path class="s14" d="m240 101c6.6-4.1 14.9-6.6 22.4-3.3 7.8 2.6 13.5 9.4 15.8 17.2 0.1 0.5 0.2 1.4 0.3 1.9-3.3-0.9-6.5-2-9.8-2.9 0.1-4-0.1-8.5-3.4-11.2-4.9-4.5-13.4-2-15.7 4.1-0.2 0.3-0.7 0.8-0.9 1.1-4-0.6-7.7-2.1-11.6-3.1 0.9-1.3 1.9-2.6 2.9-3.8z"/>
		<path class="s15" d="m40.2 109.7c3.9-6.3 11.2-11 18.8-10.5 7.7 0.3 14.4 5.7 18 12.2-5.1-0.1-10.2-0.3-15.3 0.4-8.5 1.2-16.6 4.4-24.1 8.3-0.1-3.6 0.9-7.2 2.6-10.4z"/>
		<path class="s16" d="m249.6 106.8c2.3-6.1 10.8-8.6 15.7-4.1 3.3 2.7 3.5 7.2 3.4 11.2-6.2-1.6-12.6-3-18.6-5.3-0.1-0.4-0.4-1.3-0.5-1.8z"/>
		<path class="s17" d="m170 125.8c6.2 1.1 11.5 4.8 17.4 6.9 8.5 3.6 17.4 6.5 26.2 9.3 13.7 3.6 27.6 6.2 41.7 7.6-1.3 2.5-2.9 4.7-4.6 6.8-0.4-0.3-1.3-0.8-1.7-1.1-2.9-0.8-6-1.1-9-1.5-22.9-3.5-45.2-10-66.4-19.4-2.7-2-3.4-5.3-3.6-8.6z"/>
		<path class="s18" d="m132.4 131.6c0.8 1.1 2.1 2.1 2.3 3.5-0.5 2.3-1.7 4.4-2.8 6.4-1.4 2.7-3 5.3-4.8 7.7 0-0.6-0.1-1.6-0.1-2.2q2.85-5.4 4.2-11.4c-7.1 3-13.9 6.3-21.3 8.5-14.6 5.5-30.3 7-45.7 8.6-1.5-1-3-2.3-1.7-4.1 4.5-1.2 9.2-0.8 13.7-1.3 8.8-0.9 17.5-2 26-4 10.5-2.4 21-6 30.2-11.7z"/>
		<path class="s19" d="m172.1 133.9c0.4 0.1 1.1 0.4 1.5 0.5 21.2 9.4 43.5 15.9 66.4 19.4 3 0.5 6 0.7 9 1.5-2.6 4.1-6.9 6.7-11.4 8.4-8.3 3.4-17.4 3.3-26.1 2.2-5.3-1.6-10.6-3.2-15.6-5.8-10.5-5.7-19.6-14.9-23.8-26.2z"/>
		<path class="s20" d="m109.9 144.1c7.4-2.2 14.2-5.5 21.3-8.5q-1.35 6-4.2 11.4c-2.4 3.5-5.1 6.9-8.8 9.2-4.1 2.5-8.8 4.1-13.4 5.6-3.9 0.7-7.8 1.3-11.8 1.5-10.5 0.2-21-3.6-28.8-10.6 15.4-1.6 31.1-3.1 45.7-8.6z"/>
		<path class="s21" d="m127.1 149.2c1.8-2.4 3.4-5 4.8-7.7 0.6 0.3 1.9 0.9 2.5 1.2 2.2 10.3 5.1 20.4 10.4 29.6-0.2 2.3-2.5 3.9-3.7 5.8-2.7 2.9-4.9 6.7-8.5 8.5-5.5 1.2-9.8 5.1-14.7 7.8-1.6-0.5-3.2-0.8-4.7-1.6-2.1-4.7-2.7-10-4-15-1.1-5.4-3.8-10.6-3.2-16.2-0.3 0.1-0.9 0.2-1.2 0.2 4.6-1.5 9.3-3.1 13.4-5.6 3.7-2.3 6.4-5.7 8.8-9.2 0 0.6 0.1 1.6 0.1 2.2z"/>
		<path class="s22" d="m149.4 162c4.9 10.3 10.9 20.4 20.2 27.4 8.5 7.6 19.4 11.4 30.1 14.6 20 4.4 41.7-1 57.7-13.6 3.3-2.8 6.2-6.1 10-8-2.7 4.5-6.8 7.9-10.7 11.3-12.8 11.3-29.6 18.3-46.7 17.9-8.8 0.1-17.4-2-25.7-4.8-16.4-5.9-29.3-19-37.5-34.1 1.2-3.5 2.2-7.1 2.6-10.7z"/>
	</g>
</svg>